<?xml version="1.0" encoding="UTF-8"?>
<svg width="1440" height="600" viewBox="0 0 1440 600" xmlns="http://www.w3.org/2000/svg">
  <defs>
    <style>@import url('https://fonts.googleapis.com/css2?family=Inter:wght@400;500;600&amp;display=swap');
      @import url('https://fonts.googleapis.com/css2?family=JetBrains+Mono:wght@400;500&amp;display=swap');
      .sans { font-family: 'Inter', -apple-system, system-ui, sans-serif; }
      .mono { font-family: 'JetBrains Mono', 'SF Mono', ui-monospace, monospace; }</style>
    <linearGradient id="brandGrad" x1="0" y1="0" x2="1" y2="1">
      <stop offset="0%" stop-color="#4263eb" />
      <stop offset="100%" stop-color="#5c7cfa" />
    </linearGradient>
  </defs>
  <rect width="1440" height="600" fill="#08080a" />

  <g id="nav">
    <rect x="0" y="0" width="1440" height="56" fill="#08080a" opacity="0.95" />
    <line x1="0" y1="56" x2="1440" y2="56" stroke="rgba(255,255,255,0.06)" stroke-width="1" />
    <g transform="translate(28, 16)">
      <rect x="0" y="0" width="24" height="24" rx="6" fill="#4263eb" />
      <text
        x="12"
        y="17"
        font-size="11"
        font-weight="600"
        fill="#ffffff"
        text-anchor="middle"
        font-family="Inter, sans-serif"
      >O</text>
    </g>
    <text
      class="sans"
      x="60"
      y="34"
      font-size="17"
      font-weight="600"
      fill="#e9ecef"
    >openElement</text>
    <text
      class="sans"
      x="620"
      y="34"
      font-size="13"
      font-weight="500"
      fill="#e9ecef"
      letter-spacing="0.01em"
    >Guide</text>
    <text
      class="sans"
      x="700"
      y="34"
      font-size="13"
      font-weight="500"
      fill="#adb5bd"
      letter-spacing="0.01em"
    >API</text>
    <text
      class="sans"
      x="810"
      y="34"
      font-size="13"
      font-weight="500"
      fill="#adb5bd"
      letter-spacing="0.01em"
    >Architecture</text>
    <text
      class="sans"
      x="930"
      y="34"
      font-size="13"
      font-weight="500"
      fill="#adb5bd"
      letter-spacing="0.01em"
    >Blog</text>
    <text
      class="sans"
      x="1000"
      y="34"
      font-size="13"
      font-weight="500"
      fill="#adb5bd"
      letter-spacing="0.01em"
    >Changelog</text>
    <rect
      x="1060"
      y="10"
      width="85"
      height="36"
      rx="8"
      fill="#0d0f12"
      stroke="rgba(255,255,255,0.06)"
      stroke-width="1"
    />
    <text
      class="sans"
      x="1102.5"
      y="32.55"
      font-size="13"
      font-weight="500"
      fill="#e9ecef"
      text-anchor="middle"
    >GitHub</text>
    <rect
      x="1155"
      y="10"
      width="110"
      height="36"
      rx="8"
      fill="#4263eb"
      stroke="#4263eb"
      stroke-width="1"
    />
    <text
      class="sans"
      x="1210"
      y="32.55"
      font-size="13"
      font-weight="500"
      fill="#ffffff"
      text-anchor="middle"
    >Get started</text>
  </g>
  <text
    class="sans"
    x="80"
    y="96"
    font-size="56"
    font-weight="600"
    fill="#e9ecef"
    letter-spacing="-0.03em"
  >Docs</text>
  <text
    class="sans"
    x="80"
    y="152"
    font-size="18"
    font-weight="400"
    fill="#adb5bd"
  >openElement documentation is organized around what you want to do.</text>
  <rect
    x="80"
    y="190"
    width="560"
    height="42"
    rx="8"
    fill="#16191d"
    stroke="rgba(255,255,255,0.06)"
    stroke-width="1"
  />
  <g transform="translate(96,199)" color="#868e96">
    <circle cx="11" cy="11" r="8" />
    <line x1="21" y1="21" x2="16.65" y2="16.65" />
  </g>
  <text
    class="sans"
    x="124"
    y="216"
    font-size="14"
    font-weight="400"
    fill="#868e96"
  >Search documentation...</text>
  <g id="doc-card-1">
    <rect
      x="80"
      y="280"
      width="480"
      height="190"
      rx="12"
      fill="#16191d"
      stroke="rgba(255,255,255,0.06)"
      stroke-width="1"
    />
    <line x1="86" y1="280" x2="554" y2="280" stroke="rgba(255,255,255,0.08)" stroke-width="1" />
    <g transform="translate(104,304)" color="#4263eb">
      <polygon points="12 2 2 7 12 12 22 7 12 2" />
      <polyline points="2 17 12 22 22 17" />
      <polyline points="2 12 12 17 22 12" />
    </g>
    <text
      class="sans"
      x="136"
      y="322"
      font-size="22"
      font-weight="500"
      fill="#e9ecef"
    >Build an app</text>
    <rect
      x="430"
      y="304"
      width="57.5"
      height="24"
      rx="9999"
      fill="rgba(66,99,235,0.12)"
      stroke="rgba(255,255,255,0.06)"
      stroke-width="1"
    />
    <text
      class="sans"
      x="458.75"
      y="320"
      font-size="11"
      font-weight="400"
      fill="#4263eb"
      text-anchor="middle"
    >Entry</text>
    <text
      class="sans"
      x="104"
      y="360"
      font-size="14"
      font-weight="400"
      fill="#adb5bd"
    >Create a project, write DSD components, and ship a static site in under a minute.</text>
    <text
      class="sans"
      x="104"
      y="422"
      font-size="13"
      font-weight="500"
      fill="#4263eb"
    >Read docs</text>
    <g transform="translate(190,410)" color="#4263eb">
      <line x1="5" y1="12" x2="19" y2="12" />
      <polyline points="12 5 19 12 12 19" />
    </g>
  </g>
  <g id="doc-card-2">
    <rect
      x="576"
      y="280"
      width="480"
      height="190"
      rx="12"
      fill="#16191d"
      stroke="rgba(255,255,255,0.06)"
      stroke-width="1"
    />
    <line x1="582" y1="280" x2="1050" y2="280" stroke="rgba(255,255,255,0.08)" stroke-width="1" />
    <g transform="translate(600,304)" color="#4263eb">
      <line x1="6" y1="3" x2="6" y2="15" />
      <circle cx="18" cy="6" r="3" />
      <circle cx="6" cy="18" r="3" />
      <path d="M18 9a9 9 0 0 1-9 9" />
    </g>
    <text
      class="sans"
      x="632"
      y="322"
      font-size="22"
      font-weight="500"
      fill="#e9ecef"
    >Learn the engine</text>
    <rect
      x="926"
      y="304"
      width="80"
      height="24"
      rx="9999"
      fill="rgba(66,99,235,0.12)"
      stroke="rgba(255,255,255,0.06)"
      stroke-width="1"
    />
    <text
      class="sans"
      x="966"
      y="320"
      font-size="11"
      font-weight="400"
      fill="#4263eb"
      text-anchor="middle"
    >Concepts</text>
    <text
      class="sans"
      x="600"
      y="360"
      font-size="14"
      font-weight="400"
      fill="#adb5bd"
    >Understand DSD rendering, island architecture, and the VNode pipeline.</text>
    <text
      class="sans"
      x="600"
      y="422"
      font-size="13"
      font-weight="500"
      fill="#4263eb"
    >Read docs</text>
    <g transform="translate(686,410)" color="#4263eb">
      <line x1="5" y1="12" x2="19" y2="12" />
      <polyline points="12 5 19 12 12 19" />
    </g>
  </g>
  <g id="doc-card-3">
    <rect
      x="80"
      y="486"
      width="480"
      height="190"
      rx="12"
      fill="#16191d"
      stroke="rgba(255,255,255,0.06)"
      stroke-width="1"
    />
    <line x1="86" y1="486" x2="554" y2="486" stroke="rgba(255,255,255,0.08)" stroke-width="1" />
    <g transform="translate(104,510)" color="#4263eb">
      <rect x="3" y="3" width="7" height="7" />
      <rect x="14" y="3" width="7" height="7" />
      <rect x="14" y="14" width="7" height="7" />
      <rect x="3" y="14" width="7" height="7" />
    </g>
    <text
      class="sans"
      x="136"
      y="528"
      font-size="22"
      font-weight="500"
      fill="#e9ecef"
    >Integrate packages</text>
    <rect
      x="430"
      y="510"
      width="87.5"
      height="24"
      rx="9999"
      fill="rgba(66,99,235,0.12)"
      stroke="rgba(255,255,255,0.06)"
      stroke-width="1"
    />
    <text
      class="sans"
      x="473.75"
      y="526"
      font-size="11"
      font-weight="400"
      fill="#4263eb"
      text-anchor="middle"
    >Integrate</text>
    <text
      class="sans"
      x="104"
      y="566"
      font-size="14"
      font-weight="400"
      fill="#adb5bd"
    >Publish Web Components to the Hub and compose with existing libraries.</text>
    <text
      class="sans"
      x="104"
      y="628"
      font-size="13"
      font-weight="500"
      fill="#4263eb"
    >Read docs</text>
    <g transform="translate(190,616)" color="#4263eb">
      <line x1="5" y1="12" x2="19" y2="12" />
      <polyline points="12 5 19 12 12 19" />
    </g>
  </g>
  <g id="doc-card-4">
    <rect
      x="576"
      y="486"
      width="480"
      height="190"
      rx="12"
      fill="#16191d"
      stroke="rgba(255,255,255,0.06)"
      stroke-width="1"
    />
    <line x1="582" y1="486" x2="1050" y2="486" stroke="rgba(255,255,255,0.08)" stroke-width="1" />
    <g transform="translate(600,510)" color="#4263eb">
      <circle cx="12" cy="12" r="10" />
      <line x1="2" y1="12" x2="22" y2="12" />
      <path
        d="M12 2a15.3 15.3 0 0 1 4 10 15.3 15.3 0 0 1-4 10 15.3 15.3 0 0 1-4-10 15.3 15.3 0 0 1 4-10z"
      />
    </g>
    <text
      class="sans"
      x="632"
      y="528"
      font-size="22"
      font-weight="500"
      fill="#e9ecef"
    >Maintain openElement</text>
    <rect
      x="926"
      y="510"
      width="95"
      height="24"
      rx="9999"
      fill="rgba(66,99,235,0.12)"
      stroke="rgba(255,255,255,0.06)"
      stroke-width="1"
    />
    <text
      class="sans"
      x="973.5"
      y="526"
      font-size="11"
      font-weight="400"
      fill="#4263eb"
      text-anchor="middle"
    >Contribute</text>
    <text
      class="sans"
      x="600"
      y="566"
      font-size="14"
      font-weight="400"
      fill="#adb5bd"
    >Read the package graph, ADR decisions, and contribution workflow.</text>
    <text
      class="sans"
      x="600"
      y="628"
      font-size="13"
      font-weight="500"
      fill="#4263eb"
    >Read docs</text>
    <g transform="translate(686,616)" color="#4263eb">
      <line x1="5" y1="12" x2="19" y2="12" />
      <polyline points="12 5 19 12 12 19" />
    </g>
  </g>
</svg>
