<svg xmlns="http://www.w3.org/2000/svg" viewBox="0 0 32 32" width="32" height="32" role="img">
  <title>openElement favicon</title>
  <desc>openElement open aperture favicon</desc>
  <rect width="32" height="32" fill="#fa5252" />
  <path
    d="M16 3 C23 3 29 9 29 16 C29 23 23 29 16 29 C9 29 3 23 3 16 C3 9 9 3 16 3 Z M16 8 C11.5 8 8 11.5 8 16 C8 20.5 11.5 24 16 24 C20.5 24 24 20.5 24 16 C24 11.5 20.5 8 16 8 Z"
    fill="#0c0b11"
    fill-rule="evenodd"
  />
  <path d="M23 4 H30 V11" fill="none" stroke="#f8f9fa" stroke-width="4" stroke-linecap="square" />
  <path
    d="M12 14 H20 M12 18 H20"
    fill="none"
    stroke="#fa5252"
    stroke-width="2.4"
    stroke-linecap="square"
  />
</svg>
